<?xml version="1.0" encoding="UTF-8" standalone="no"?>
<!-- Created with Inkscape (http://www.inkscape.org/) -->

<svg
   xmlns:dc="http://purl.org/dc/elements/1.1/"
   xmlns:cc="http://creativecommons.org/ns#"
   xmlns:rdf="http://www.w3.org/1999/02/22-rdf-syntax-ns#"
   xmlns:svg="http://www.w3.org/2000/svg"
   xmlns="http://www.w3.org/2000/svg"
   xmlns:sodipodi="http://sodipodi.sourceforge.net/DTD/sodipodi-0.dtd"
   xmlns:inkscape="http://www.inkscape.org/namespaces/inkscape"
   width="400"
   height="50"
   viewBox="0 0 400 50.000001"
   id="svg2"
   version="1.1"
   inkscape:version="0.91 r13725"
   sodipodi:docname="logo.svg">
  <defs
     id="defs4" />
  <sodipodi:namedview
     id="base"
     pagecolor="#ffffff"
     bordercolor="#666666"
     borderopacity="1.0"
     inkscape:pageopacity="0.0"
     inkscape:pageshadow="2"
     inkscape:zoom="1.979899"
     inkscape:cx="170.80275"
     inkscape:cy="-18.552719"
     inkscape:document-units="px"
     inkscape:current-layer="layer1"
     showgrid="false"
     inkscape:window-width="1920"
     inkscape:window-height="1018"
     inkscape:window-x="-8"
     inkscape:window-y="-8"
     inkscape:window-maximized="1"
     units="px" />
  <metadata
     id="metadata7">
    <rdf:RDF>
      <cc:Work
         rdf:about="">
        <dc:format>image/svg+xml</dc:format>
        <dc:type
           rdf:resource="http://purl.org/dc/dcmitype/StillImage" />
        <dc:title></dc:title>
      </cc:Work>
    </rdf:RDF>
  </metadata>
  <g
     inkscape:label="Layer 1"
     inkscape:groupmode="layer"
     id="layer1"
     transform="translate(0,-1002.3622)">
    <g
       id="g3381"
       transform="matrix(0.09162481,0,0,0.09162481,351.81703,1005.9555)">
      <g
         id="g3337">
        <g
           id="g3339">
          <path
             id="path3341"
             d="m 477.45,422.556 -103.8,-103.8 -7.3,7.3 -11.2,-11.2 c 57.6,-77.2 51.4,-187 -18.7,-257.1 -77,-77 -201.8,-77 -278.7,0 -77,77 -77,201.8 0,278.7 70.1,70.1 179.9,76.4 257.1,18.7 l 11.2,11.2 -7.3,7.3 103.8,103.8 c 15.2,15.2 39.8,15.2 55,0 15.1,-15.1 15.1,-39.7 -0.1,-54.9 z m -176.3,-121.3 c -57.5,57.5 -150.8,57.5 -208.3,0 -57.5,-57.5 -57.5,-150.8 0,-208.3 57.5,-57.5 150.8,-57.5 208.3,0 57.5,57.5 57.5,150.8 0,208.3 z"
             inkscape:connector-curvature="0"
             style="fill:#006df0" />
          <path
             id="path3343"
             d="m 226.95,187.256 c -8.5,-4.7 -17.5,-8.2 -26.4,-11.9 -5.2,-2.1 -10.1,-4.7 -14.5,-8.1 -8.6,-6.9 -6.9,-18 3.1,-22.4 2.8,-1.2 5.8,-1.6 8.9,-1.8 11.7,-0.6 22.8,1.5 33.3,6.6 5.3,2.5 7,1.7 8.8,-3.7 1.9,-5.8 3.5,-11.7 5.1,-17.5 1.1,-3.9 -0.3,-6.5 -4,-8.2 -6.8,-3 -13.7,-5.1 -21,-6.3 -9.5,-1.5 -9.5,-1.5 -9.6,-11.1 -0.1,-13.5 -0.1,-13.5 -13.6,-13.5 -2,0 -3.9,0 -5.9,0 -6.3,0.2 -7.4,1.3 -7.6,7.7 -0.1,2.9 0,5.7 0,8.6 0,8.5 -0.1,8.3 -8.2,11.3 -19.6,7.1 -31.7,20.5 -33,41.9 -1.2,18.9 8.7,31.7 24.3,41 9.6,5.7 20.2,9.2 30.3,13.6 4,1.7 7.7,3.8 11.1,6.5 9.8,8 8,21.5 -3.6,26.5 -6.2,2.7 -12.7,3.4 -19.5,2.6 -10.4,-1.3 -20.3,-4 -29.6,-8.9 -5.5,-2.9 -7.1,-2.1 -8.9,3.8 -1.6,5.1 -3,10.3 -4.4,15.5 -1.9,7 -1.2,8.6 5.4,11.8 8.4,4.1 17.5,6.2 26.7,7.7 7.2,1.1 7.5,1.5 7.5,8.9 0,3.4 0.1,6.8 0.1,10.2 0.1,4.3 2.1,6.8 6.5,6.9 5,0.1 10,0.1 15,0 4.1,-0.1 6.2,-2.3 6.2,-6.5 0,-4.7 0.2,-9.3 0,-13.9 -0.2,-4.7 1.8,-7.1 6.4,-8.4 10.4,-2.9 19.4,-8.5 26.3,-16.8 19.1,-23.3 11.8,-57.2 -15.2,-72.1 z"
             inkscape:connector-curvature="0"
             style="fill:#006df0" />
        </g>
      </g>
      <g
         id="g3345" />
      <g
         id="g3347" />
      <g
         id="g3349" />
      <g
         id="g3351" />
      <g
         id="g3353" />
      <g
         id="g3355" />
      <g
         id="g3357" />
      <g
         id="g3359" />
      <g
         id="g3361" />
      <g
         id="g3363" />
      <g
         id="g3365" />
      <g
         id="g3367" />
      <g
         id="g3369" />
      <g
         id="g3371" />
      <g
         id="g3373" />
    </g>
    <text
       xml:space="preserve"
       style="font-style:normal;font-weight:normal;font-size:40px;line-height:125%;font-family:sans-serif;letter-spacing:0px;word-spacing:0px;fill:#000000;fill-opacity:1;stroke:none;stroke-width:1px;stroke-linecap:butt;stroke-linejoin:miter;stroke-opacity:1"
       x="12.121828"
       y="1041.2505"
       id="text3402"
       sodipodi:linespacing="125%"><tspan
         sodipodi:role="line"
         id="tspan3404"
         x="12.121828"
         y="1041.2505"
         style="font-style:normal;font-variant:normal;font-weight:normal;font-stretch:normal;font-family:'Showcard Gothic';-inkscape-font-specification:'Showcard Gothic'">localdeals.io</tspan></text>
  </g>
</svg>
